<svg width="900" height="900" viewBox="0 0 900 900" fill="none" xmlns="http://www.w3.org/2000/svg">
    <g clip-path="url(#clip0_5_10)">
        <path d="M438.307 0.154975C686.689 -6.30131 893.299 189.772 899.841 438.153C906.382 686.532 710.38 893.21 462.003 899.836C213.504 906.467 6.70394 710.348 0.159107 461.847C-6.38583 213.347 189.804 6.61449 438.307 0.154975Z" fill="#297DD3"/>
        <path d="M430.201 207.878C477.205 205.864 524.666 223.226 562.642 252.306C560.048 256.073 557.903 261.652 556.227 266.021C545.148 294.905 542.731 327.992 539.785 358.793C537.235 385.464 536.427 412.383 534.022 439.029C533.241 447.669 532.479 463.779 530.937 471.855C525.205 441.851 521.29 411.643 514.756 381.7C512.956 373.448 508.869 362.864 497.782 368.874C491.869 372.079 490.767 392.046 489.944 399.535L485.136 443.058C484.408 449.841 483.223 463.84 481.677 470.12L481.508 470.789C480.247 457.432 478.899 444.084 477.465 430.747C476.664 423.228 475.866 409.557 473.312 402.457C470.301 394.085 458.421 394.513 454.925 403.755C451.63 412.469 449.624 421.314 447.205 430.573C443.709 444.31 439.921 457.962 435.844 471.516L430.099 433.408C428.238 420.797 425.958 386.027 407.085 393.366C395.351 397.928 390.312 431.632 385.672 443.382L385.341 444.211C377.34 443.97 358.717 442.599 351.802 445.211C349.224 446.185 346.781 447.947 345.659 450.695C344.384 453.813 344.822 458.585 346.161 461.609C347.253 464.073 349.123 465.955 351.544 466.852C357.575 469.086 392.388 469.587 397.39 466.877C404.586 462.979 407.464 448.285 409.616 440.733C412.303 458.566 414.441 476.503 418.289 494.091C420.571 504.527 426.989 518.867 439.351 512.321C441.61 511.114 443.539 509.306 444.95 507.073C449.558 499.788 456.939 470.971 459.975 460.738C463.106 491.143 467.383 522.087 471.186 552.432C471.827 557.551 474.036 565.223 479.491 566.222C486.012 567.418 490.993 564.365 492.442 557.326C494.947 546.309 495.363 534.845 496.77 523.624C499.877 498.836 502.03 473.834 505.152 449.059C508.544 465.435 510.843 481.361 513.9 498.112C516.28 511.148 519.209 535.896 531.39 542.933C538.277 546.912 548.62 540.352 550.636 532.112C554.873 514.797 555.092 496.313 556.325 478.424L561.852 396.767C563.972 365.355 566.617 306.366 577.847 278.532C580.45 272.08 584.672 264.138 591.182 261.583C594.206 260.396 597.403 260.721 600.255 262.272C609.149 267.107 613.514 281.06 615.908 290.595C623.118 319.306 624.529 354.811 626.172 384.607C628.284 422.898 629.789 461.209 632.357 499.475C633.743 520.16 634.855 547.646 640.788 567.214C653.374 501.155 650.235 433.818 663.102 367.911C665.016 358.059 672.053 337.637 683.196 336.384C707.736 333.627 712.748 390.992 714.235 407.685C718.316 436.672 718.36 464.48 724.29 494.306C731.872 470.867 732.64 405.443 752.593 395.824C756.293 393.998 760.542 393.918 764.3 395.605C778.458 401.957 782.478 427.549 787.636 440.844L787.953 441.65C796.382 441.486 812.308 439.374 815.781 449.754C817.834 455.894 815.246 465.399 808.259 466.32C767.446 471.698 769.89 463.772 759.174 427.953C754.428 449.994 751.448 525.166 727.237 531.14C723.294 532.127 719.145 531.361 715.744 529.017C700.361 518.235 697.295 475.354 695.429 456.748L691.529 414.85C690.298 401.319 688.277 387.884 685.477 374.62C683.352 389.344 680.707 403.92 679.346 418.77C677.202 442.148 675.595 465.643 673.705 489.052C671.596 515.172 669.413 570.821 656.265 591.953C653.084 597.066 648.655 601.515 642.797 602.623C638.748 603.387 634.748 602.269 631.429 599.721C623.41 593.565 619.39 581.043 617.058 571.291C611.229 546.916 610.04 520.983 608.38 495.985C606.288 463.079 604.486 430.153 602.972 397.211C601.473 366.544 600.076 333.582 594.889 303.457C591.229 320.353 589.062 347.756 587.804 365.152L581.659 456.966C575.754 545.194 570.424 654.462 469.494 674.409C461.984 675.894 454.727 676.887 447.102 677.279C389.36 680.15 332.867 658.765 289.767 617.723C199.084 530.059 191.78 379.624 274.58 283.26C305.13 247.908 345.118 223.388 389.153 213.004C403.272 209.79 415.876 208.554 430.201 207.878Z" fill="#00F529"/>
    </g>
    <defs>
        <clipPath id="clip0_5_10">
            <rect width="900" height="900" fill="white"/>
        </clipPath>
    </defs>
</svg>
